<svg width="59" height="59" viewBox="0 0 59 59" fill="none" xmlns="http://www.w3.org/2000/svg">
<g filter="url(#filter0_d_1_6)">
<circle cx="29.5" cy="29.5" r="28.5" fill="white"/>
</g>
<path d="M24.5 35V34.5H24H21.5C20.9696 34.5 20.4609 34.2893 20.0858 33.9142C19.7107 33.5391 19.5 33.0304 19.5 32.5V23.5C19.5 22.9696 19.7107 22.4609 20.0858 22.0858C20.4609 21.7107 20.9696 21.5 21.5 21.5H36.5C37.0304 21.5 37.5391 21.7107 37.9142 22.0858C38.2893 22.4609 38.5 22.9696 38.5 23.5V32.5C38.5 33.0304 38.2893 33.5391 37.9142 33.9142C37.5391 34.2893 37.0304 34.5 36.5 34.5L29.35 34.5L29.3492 34.5C29.0095 34.5005 28.68 34.6163 28.4147 34.8285L28.4147 34.8286L25.195 37.4043C25.1321 37.4545 25.0562 37.486 24.9761 37.4951C24.8961 37.5041 24.8151 37.4904 24.7425 37.4555C24.6698 37.4205 24.6086 37.3658 24.5657 37.2976C24.5228 37.2294 24.5 37.1505 24.5 37.07C24.5 37.07 24.5 37.0699 24.5 37.0699V35ZM28.1022 34.4385L28.1024 34.4384C28.4566 34.1549 28.8967 34.0004 29.3504 34H36.5C36.8978 34 37.2794 33.842 37.5607 33.5607C37.842 33.2794 38 32.8978 38 32.5V23.5C38 22.6729 37.3271 22 36.5 22H21.5C21.1022 22 20.7206 22.158 20.4393 22.4393C20.158 22.7206 20 23.1022 20 23.5V32.5C20 32.8978 20.158 33.2794 20.4393 33.5607C20.7206 33.842 21.1022 34 21.5 34H25V35.879V36.919L25.8122 36.2695L28.1022 34.4385ZM25.5 28C25.5 28.1326 25.4473 28.2598 25.3536 28.3536C25.2598 28.4473 25.1326 28.5 25 28.5C24.8674 28.5 24.7402 28.4473 24.6464 28.3536C24.5527 28.2598 24.5 28.1326 24.5 28C24.5 27.8674 24.5527 27.7402 24.6464 27.6464C24.7402 27.5527 24.8674 27.5 25 27.5C25.1326 27.5 25.2598 27.5527 25.3536 27.6464C25.4473 27.7402 25.5 27.8674 25.5 28ZM29.5 28C29.5 28.1326 29.4473 28.2598 29.3536 28.3536C29.2598 28.4473 29.1326 28.5 29 28.5C28.8674 28.5 28.7402 28.4473 28.6464 28.3536C28.5527 28.2598 28.5 28.1326 28.5 28C28.5 27.8674 28.5527 27.7402 28.6464 27.6464C28.7402 27.5527 28.8674 27.5 29 27.5C29.1326 27.5 29.2598 27.5527 29.3536 27.6464C29.4473 27.7402 29.5 27.8674 29.5 28ZM33.5 28C33.5 28.1326 33.4473 28.2598 33.3536 28.3536C33.2598 28.4473 33.1326 28.5 33 28.5C32.8674 28.5 32.7402 28.4473 32.6464 28.3536C32.5527 28.2598 32.5 28.1326 32.5 28C32.5 27.8674 32.5527 27.7402 32.6464 27.6464C32.7402 27.5527 32.8674 27.5 33 27.5C33.1326 27.5 33.2598 27.5527 33.3536 27.6464C33.4473 27.7402 33.5 27.8674 33.5 28Z" fill="black" stroke="black"/>
<defs>
<filter id="filter0_d_1_6" x="0" y="0" width="59" height="59" filterUnits="userSpaceOnUse" color-interpolation-filters="sRGB">
<feFlood flood-opacity="0" result="BackgroundImageFix"/>
<feColorMatrix in="SourceAlpha" type="matrix" values="0 0 0 0 0 0 0 0 0 0 0 0 0 0 0 0 0 0 127 0" result="hardAlpha"/>
<feMorphology radius="1" operator="dilate" in="SourceAlpha" result="effect1_dropShadow_1_6"/>
<feOffset/>
<feComposite in2="hardAlpha" operator="out"/>
<feColorMatrix type="matrix" values="0 0 0 0 0 0 0 0 0 0 0 0 0 0 0 0 0 0 0.15 0"/>
<feBlend mode="normal" in2="BackgroundImageFix" result="effect1_dropShadow_1_6"/>
<feBlend mode="normal" in="SourceGraphic" in2="effect1_dropShadow_1_6" result="shape"/>
</filter>
</defs>
</svg>
